<?xml version="1.0" encoding="iso-8859-1"?>
<!-- Generator: Adobe Illustrator 19.0.0, SVG Export Plug-In . SVG Version: 6.00 Build 0)  -->
<svg version="1.1" id="Layer_1" xmlns="http://www.w3.org/2000/svg" xmlns:xlink="http://www.w3.org/1999/xlink" x="0px" y="0px"
	 viewBox="0 0 460 460" style="enable-background:new 0 0 460 460;" xml:space="preserve">
<g id="XMLID_995_">
	<path id="XMLID_996_" style="fill:#DB3916;" d="M146.199,444.25l302.733-284.885C419.122,66.9,332.381,0,230,0
		C102.974,0,0,102.974,0,230C0,327.457,60.617,410.751,146.199,444.25z"/>
	<path id="XMLID_997_" style="fill:#6E1D0B;" d="M448.932,159.365l-74.149-74.149L80.975,379.025l65.224,65.224
		C172.167,454.414,200.43,460,230,460c127.026,0,230-102.975,230-230C460,205.355,456.108,181.623,448.932,159.365z"/>
	<path id="XMLID_998_" style="fill:#12B5FF;" d="M249.979,33.521c97.475,0,176.5,79.025,176.5,176.5s-79.025,176.5-176.5,176.5
		V33.521z"/>
	<path id="XMLID_999_" style="fill:#48D9FF;" d="M249.979,33.521v353c-36.889,0-71.141-11.331-99.452-30.676l-69.553,23.18
		l23.18-69.553c-19.344-28.311-30.676-62.563-30.676-99.452C73.479,112.546,152.504,33.521,249.979,33.521z"/>
	<path id="XMLID_1000_" style="fill:#FFFFFF;" d="M239.979,364.921l10,10.66l-10,10.66c-92.69-5.2-166.5-82.26-166.5-176.22
		s73.81-171.02,166.5-176.22l10,10.66l-10,10.66c-14.58,4.65-28.73,19.26-39.92,41.64c-1.64,3.27-3.19,6.68-4.67,10.18
		c14.24,5.3,29.25,8.53,44.59,9.5l10,10.02l-10,10.02c-17.68-1-35-4.65-51.4-10.73c-6.86,22.23-10.89,47.6-11.69,74.27h73.09v20
		h-73.09c0.8,26.67,4.83,52.04,11.69,74.27c16.4-6.08,33.72-9.73,51.4-10.73l10,10.02l-10,10.02c-15.34,0.97-30.35,4.2-44.59,9.5
		c1.48,3.5,3.03,6.91,4.67,10.18C211.249,345.661,225.399,360.271,239.979,364.921z M177.079,98.751
		c6-14.15,13.14-26.45,21.19-36.44c-15.42,5.42-29.75,13.18-42.55,22.87C162.489,90.301,169.639,94.831,177.079,98.751z
		 M198.269,357.731c-8.05-9.99-15.19-22.29-21.19-36.44c-7.44,3.92-14.59,8.45-21.36,13.57
		C168.519,344.551,182.849,352.311,198.269,357.731z M156.869,200.021c0.86-30.26,5.56-58.28,13.23-82.36
		c-10.5-5.33-20.49-11.73-29.82-19.14c-26.64,26.22-43.96,61.88-46.47,101.5H156.869z M170.099,302.381
		c-7.67-24.08-12.37-52.1-13.23-82.36h-63.06c2.51,39.62,19.83,75.28,46.47,101.5C149.609,314.111,159.599,307.711,170.099,302.381z
		"/>
	<path id="XMLID_1006_" style="fill:#E0F8FF;" d="M249.979,33.521c97.32,0,176.5,79.18,176.5,176.5s-79.18,176.5-176.5,176.5
		c-3.36,0-6.69-0.09-10-0.28v-21.32v-61.32v-20.04v-63.54v-20v-63.54v-20.04v-61.32v-21.32
		C243.289,33.611,246.619,33.521,249.979,33.521z M343.089,200.021h63.06c-2.51-39.62-19.83-75.28-46.47-101.5
		c-9.33,7.41-19.32,13.81-29.82,19.14C337.529,141.741,342.229,169.761,343.089,200.021z M406.149,220.021h-63.06
		c-0.86,30.26-5.56,58.28-13.23,82.36c10.5,5.33,20.49,11.73,29.82,19.14C386.319,295.301,403.639,259.641,406.149,220.021z
		 M344.239,85.181c-12.8-9.69-27.13-17.45-42.55-22.87c8.05,9.99,15.19,22.29,21.19,36.44
		C330.319,94.831,337.469,90.301,344.239,85.181z M301.689,357.731c15.42-5.42,29.75-13.18,42.55-22.87
		c-6.77-5.12-13.92-9.65-21.36-13.57C316.879,335.441,309.739,347.741,301.689,357.731z M259.979,200.021h63.09
		c-0.8-26.67-4.83-52.04-11.69-74.27c-16.4,6.08-33.72,9.73-51.4,10.73V200.021z M323.069,220.021h-63.09v63.54
		c17.68,1,35,4.65,51.4,10.73C318.239,272.061,322.269,246.691,323.069,220.021z M304.569,106.941c-1.48-3.5-3.03-6.91-4.67-10.18
		c-11.19-22.38-25.34-36.99-39.92-41.64v61.32C275.319,115.471,290.329,112.241,304.569,106.941z M299.899,323.281
		c1.64-3.27,3.19-6.68,4.67-10.18c-14.24-5.3-29.25-8.53-44.59-9.5v61.32C274.559,360.271,288.709,345.661,299.899,323.281z"/>
</g>
<g>
</g>
<g>
</g>
<g>
</g>
<g>
</g>
<g>
</g>
<g>
</g>
<g>
</g>
<g>
</g>
<g>
</g>
<g>
</g>
<g>
</g>
<g>
</g>
<g>
</g>
<g>
</g>
<g>
</g>
</svg>
